<?xml version="1.0" encoding="UTF-8" standalone="no"?>
<svg
   xmlns:dc="http://purl.org/dc/elements/1.1/"
   xmlns:cc="http://creativecommons.org/ns#"
   xmlns:rdf="http://www.w3.org/1999/02/22-rdf-syntax-ns#"
   xmlns:svg="http://www.w3.org/2000/svg"
   xmlns="http://www.w3.org/2000/svg"
   xmlns:sodipodi="http://sodipodi.sourceforge.net/DTD/sodipodi-0.dtd"
   xmlns:inkscape="http://www.inkscape.org/namespaces/inkscape"
   version="1.1"
   id="Layer_1"
   x="0px"
   y="0px"
   viewBox="0 0 300 600.00001"
   enable-background="new 0 0 1356.698 1680.772"
   xml:space="preserve"
   inkscape:version="0.91 r13725"
   sodipodi:docname="chess-piece-white queen.svg"
   width="300"
   height="600"><metadata
     id="metadata9"><rdf:RDF><cc:Work
         rdf:about=""><dc:format>image/svg+xml</dc:format><dc:type
           rdf:resource="http://purl.org/dc/dcmitype/StillImage" /><dc:title></dc:title></cc:Work></rdf:RDF></metadata><defs
     id="defs7" /><sodipodi:namedview
     pagecolor="#ffffff"
     bordercolor="#666666"
     borderopacity="1"
     objecttolerance="10"
     gridtolerance="10"
     guidetolerance="10"
     inkscape:pageopacity="0"
     inkscape:pageshadow="2"
     inkscape:window-width="1675"
     inkscape:window-height="1048"
     id="namedview5"
     showgrid="false"
     showguides="true"
     inkscape:guide-bbox="true"
     inkscape:zoom="0.69722962"
     inkscape:cx="110.24225"
     inkscape:cy="135.1149"
     inkscape:window-x="196"
     inkscape:window-y="0"
     inkscape:window-maximized="0"
     inkscape:current-layer="Layer_1" /><g
     id="g91382"
     transform="matrix(0.94913256,0,0,0.94913256,7.6301162,14.700214)"
     style="stroke-width:4.00365572;stroke-miterlimit:4;stroke-dasharray:none;stroke:#000000;stroke-opacity:1;fill:none"><g
       transform="matrix(0.19691236,0,0,0.19691236,16.491593,276.98792)"
       id="g91378"
       style="stroke-width:20.3321707;stroke-miterlimit:4;stroke-dasharray:none;stroke:#000000;stroke-opacity:1;fill:none"><path
         style="fill:none;stroke:#000000;stroke-width:6.80000019;stroke-miterlimit:4;stroke-dasharray:none;stroke-opacity:1"
         d="m 149.92188,14.701172 c -5.00534,-0.04824 -9.5184,4.561535 -8.33399,10.916016 0.77541,4.109673 -0.32139,6.572159 -7.35351,16.673828 L 126,54.142578 122.36328,48.324219 c -1.97865,-3.200556 -5.82874,-9.727052 -8.5293,-14.507813 -2.70055,-4.780779 -5.45593,-9.021516 -6.09765,-9.419922 -0.64169,-0.40106 -3.84929,5.381127 -7.11133,12.84375 -3.262044,7.465259 -6.284487,13.557752 -6.685547,13.539063 C 93.511648,50.760551 88.138055,44.254979 81.988281,36.316406 75.838508,28.380543 70.624077,22.089964 70.410156,22.335938 c -0.213902,0.245992 2.246505,16.491105 5.455078,36.103515 3.208574,19.609757 5.856087,36.167279 5.882813,36.792969 0.02675,0.628363 1.281943,1.138672 2.779297,1.138672 2.299474,0 2.995451,2.219679 4.519531,14.332026 2.967926,23.46806 11.898885,44.33181 24.679685,57.73829 l 5.77539,6.06836 -27.193356,20.95703 -27.21875,20.96289 0,6.63086 c 0,6.55085 0.160681,6.76548 13.636718,17.19336 l 12.666016,9.78515 c -35.607138,11.58851 -62.242645,33.38394 -62.121094,64.2168 0,0 11.342998,8.20213 17.63086,10.59766 23.444061,8.93163 48.1135,23.97407 56.128906,51.83203 5.15833,17.95976 0.43597,33.09656 2.13672,47.58398 2.94342,24.57196 25.41344,42.8419 15.79297,47.6582 -2.24406,1.11783 -10.27585,2.45787 -11.83008,4.71875 -0.38912,0.55976 -0.29875,1.08772 0.39258,2.28516 1.23949,2.1551 1.67786,4.23791 1.16015,5.49609 -0.85729,2.05885 -7.56953,2.15053 -8.1889,2.33014 -0.21979,0.0641 -4.359325,1.11662 -3.698645,1.80944 3.773235,3.47049 15.582675,3.41606 4.241065,8.17488 -1.28603,0.004 -0.331,-0.52156 0.35547,7.79101 1.11651,13.53463 -2.99378,23.49486 -16.578127,23.83594 -4.911625,0.12485 -3.340087,-0.15782 -22.636719,-2.12695 -12.401479,-1.23277 -16.084119,-3.49757 -22.662109,15.66992 -0.287446,14.98008 1.075254,31.88739 0.148437,43.38672 L 252.67773,584.6582 c -1.81569,-15.48993 -0.43925,-34.69818 -1.15039,-51.80664 -4.7294,-9.77914 -11.1026,-7.34876 -19.76953,-6.50586 -16.65504,1.63086 -23.36766,3.47024 -29.73633,0.50196 -9.68793,-4.50906 -9.85265,-17.25522 -8.14648,-27.8711 0.6061,-3.79043 0.4535,-3.98315 -3.71484,-5.76221 -3.61147,-1.31621 11.05873,-4.42942 6.45347,-6.99783 -0.34128,-0.36553 -11.78194,0.29292 -10.76988,-4.26144 1.05746,-4.75183 5.9749,-5.18347 -6.25781,-8.75 -3.48655,-1.01485 -4.9085,-1.29875 -5.83008,-3.06641 -3.08958,-5.79676 11.28914,-20.86323 15.85352,-36.72265 6.70283,-22.90672 -5.40774,-40.10213 8.82812,-69.06446 11.92266,-23.81203 28.04439,-33.34031 53.30469,-40.69336 6.63069,-1.93007 18.98633,-10.04882 18.98633,-10.04882 -0.0146,-33.40382 -25.36954,-54.81916 -59.62891,-65.38282 l 10.4082,-8.08008 c 13.36906,-10.32091 13.5293,-10.53508 13.5293,-17.08593 l 0,-6.63086 -27.21875,-20.96289 -27.19336,-20.95703 5.80273,-6.06836 c 12.78081,-13.40648 21.6844,-34.27023 24.65235,-57.73829 1.09625,-8.64709 2.48651,-14.332026 3.5293,-14.332026 1.09625,0 4.06511,-13.885705 7.88867,-36.794922 3.36904,-20.23541 5.98855,-36.944384 5.82812,-37.128906 -0.16043,-0.184467 -5.13382,6.160335 -11.04297,14.101562 L 206.53516,50.990234 200.8125,36.505859 c -3.15508,-7.965317 -6.12282,-14.478076 -6.63086,-14.472656 -0.48129,0.0054 -4.9193,7.174912 -9.89258,15.931641 -4.94655,8.75942 -9.49317,15.921875 -10.05468,15.921875 -0.56152,0 -4.89235,-5.125154 -9.625,-11.392578 -7.11235,-9.454617 -8.28928,-11.889292 -7.00586,-14.314453 2.32623,-4.342285 1.92502,-7.319337 -1.47071,-10.707032 -1.89716,-1.900339 -4.09755,-2.751131 -6.21093,-2.771484 z"
         transform="matrix(5.3505712,0,0,5.3505712,-124.57641,-1485.3104)"
         id="path3"
         inkscape:connector-curvature="0"
         sodipodi:nodetypes="sccccscccccccscccccscccsccccccccccccccccccccccccccscccscccccscccccccscccs" /></g></g></svg>