<?xml version="1.0" standalone="no"?>
<!DOCTYPE svg PUBLIC "-//W3C//DTD SVG 20010904//EN"
 "http://www.w3.org/TR/2001/REC-SVG-20010904/DTD/svg10.dtd">
<svg version="1.0" xmlns="http://www.w3.org/2000/svg"
 width="1280.000000pt" height="722.000000pt" viewBox="0 0 1280.000000 722.000000"
 preserveAspectRatio="xMidYMid meet">
<metadata>
Created by potrace 1.15, written by Peter Selinger 2001-2017
</metadata>
<g transform="translate(0.000000,722.000000) scale(0.100000,-0.100000)"
fill="#000000" stroke="none">
<path d="M671 7209 c-25 -5 -78 -24 -118 -43 -322 -153 -397 -580 -146 -833
33 -34 76 -69 94 -78 l32 -17 -6 -132 c-10 -216 -49 -362 -117 -440 -44 -49
-87 -70 -190 -90 -138 -28 -185 -73 -209 -201 -16 -87 -14 -300 3 -314 9 -8
220 -10 772 -9 l759 3 3 154 c3 172 -9 237 -54 291 -36 42 -66 56 -175 80
-106 23 -157 52 -194 109 -53 85 -88 243 -99 441 l-6 105 45 28 c61 39 148
136 179 199 101 209 63 442 -99 603 -124 125 -300 178 -474 144z"/>
<path d="M2032 7208 c-23 -23 -6 -778 23 -1023 56 -478 184 -783 431 -1031 78
-78 286 -234 313 -234 14 0 185 118 253 174 76 63 180 181 239 271 154 235
239 541 268 960 17 251 25 849 12 874 -12 21 -17 21 -159 19 l-147 -3 -3 -122
-3 -123 -149 0 -150 0 0 113 c0 75 -4 117 -12 125 -17 17 -279 17 -296 0 -8
-8 -12 -50 -12 -125 l0 -113 -150 0 -150 0 0 113 c0 75 -4 117 -12 125 -8 8
-56 12 -148 12 -92 0 -140 -4 -148 -12z"/>
<path d="M5160 7206 c-154 -34 -295 -109 -425 -228 -65 -59 -155 -163 -155
-180 0 -6 34 -45 76 -88 l75 -78 -250 -233 c-141 -132 -251 -242 -251 -251 0
-17 176 -229 241 -290 l28 -27 156 53 c85 29 152 49 148 45 -5 -3 -64 -52
-133 -107 -238 -189 -327 -306 -382 -497 -20 -70 -23 -102 -23 -265 0 -160 3
-198 23 -280 13 -52 31 -111 40 -130 l17 -35 761 -3 c871 -2 804 -11 734 90
-50 70 -103 183 -121 258 -18 74 -15 248 5 338 24 110 57 202 171 477 150 364
178 463 179 630 0 160 -34 263 -141 423 -114 172 -274 303 -438 357 -98 33
-237 42 -335 21z"/>
<path d="M7083 6957 c-175 -146 -324 -271 -331 -279 -10 -12 1 -54 59 -219 39
-112 91 -263 116 -336 l46 -132 -47 -52 c-56 -62 -109 -169 -132 -264 -19 -82
-14 -241 10 -318 24 -77 83 -180 137 -241 l51 -56 -30 0 c-42 0 -215 -36 -243
-50 -83 -43 -79 -96 12 -134 49 -20 184 -44 312 -55 60 -5 111 -11 113 -14 8
-8 -17 -112 -40 -162 -35 -76 -73 -101 -211 -134 -221 -55 -260 -111 -272
-393 -5 -112 -3 -151 7 -163 11 -13 101 -15 776 -15 l764 0 6 27 c12 44 -4
304 -21 361 -18 61 -62 115 -116 142 -20 11 -79 28 -129 40 -114 24 -171 56
-205 114 -23 39 -60 174 -50 184 2 2 54 8 115 13 200 16 358 57 380 100 15 28
-4 64 -45 83 -40 19 -202 56 -247 56 -16 0 -28 3 -28 6 0 3 20 28 45 56 53 59
98 136 126 215 30 83 37 256 15 343 -23 91 -75 195 -130 263 -26 31 -44 61
-41 67 3 5 23 60 45 122 21 62 70 205 109 317 39 112 71 208 71 215 0 12 -644
549 -664 554 -8 2 -157 -116 -333 -261z m337 -547 l-4 -155 -7 150 c-4 83 -7
155 -7 160 0 6 3 51 6 100 l7 90 5 -95 c3 -52 3 -165 0 -250z"/>
<path d="M9695 7210 c-4 -6 -40 -132 -80 -281 -40 -149 -75 -273 -78 -275 -2
-3 -67 38 -143 90 -135 93 -166 107 -179 85 -4 -5 -15 -113 -24 -239 -10 -127
-20 -232 -22 -235 -3 -2 -57 4 -120 15 -63 11 -129 20 -148 20 -32 0 -33 -1
-28 -32 2 -18 72 -188 154 -378 l150 -345 -18 -30 c-9 -16 -30 -66 -44 -110
-22 -65 -27 -98 -28 -180 0 -171 54 -311 165 -431 l58 -61 -112 -17 c-133 -21
-213 -49 -235 -82 -15 -24 -15 -27 4 -52 36 -48 184 -86 391 -99 l102 -6 0
-32 c0 -60 -50 -229 -94 -320 -51 -106 -98 -171 -229 -317 -177 -199 -199
-248 -195 -438 l3 -125 770 0 770 0 0 140 c0 191 -4 199 -219 441 -101 114
-179 233 -224 342 -36 89 -78 271 -68 297 4 10 20 15 53 15 121 0 341 39 405
71 75 38 55 101 -42 132 -27 9 -96 24 -154 33 l-106 17 38 41 c90 98 145 202
167 321 27 139 13 258 -46 385 l-31 68 156 363 c86 199 155 368 152 376 -7 18
-51 16 -185 -7 -63 -11 -116 -18 -118 -17 -1 2 -10 102 -18 223 -20 264 -20
264 -46 264 -11 0 -84 -43 -160 -96 -77 -53 -142 -94 -144 -92 -2 2 -36 125
-76 273 -39 149 -76 276 -82 283 -12 15 -33 16 -42 2z"/>
<path d="M11910 7201 c-5 -11 -10 -84 -10 -165 l0 -146 -194 0 c-168 0 -195
-2 -200 -16 -11 -30 -7 -229 6 -242 8 -8 67 -12 200 -12 l188 0 0 -178 0 -177
-259 -133 c-142 -73 -264 -139 -270 -146 -9 -10 11 -66 84 -238 l95 -225 -49
-74 c-167 -250 -139 -573 66 -788 35 -36 63 -66 63 -67 0 -1 -21 -5 -47 -9
-197 -28 -333 -92 -333 -157 0 -38 61 -84 145 -111 91 -28 247 -57 312 -57 52
0 53 -6 22 -106 -28 -91 -99 -228 -167 -323 -206 -285 -235 -333 -278 -462
-26 -79 -28 -94 -28 -274 l-1 -190 764 -3 c605 -2 766 0 773 10 11 18 10 240
-2 323 -13 89 -59 220 -100 288 -18 30 -79 116 -137 193 -57 76 -122 169 -144
205 -42 71 -102 226 -113 295 l-7 41 83 7 c172 13 346 64 397 115 32 32 27 73
-12 108 -43 38 -106 61 -238 87 l-109 21 51 50 c128 125 191 276 191 453 -1
134 -34 245 -106 352 l-37 54 101 228 c56 126 100 236 98 245 -2 10 -107 69
-268 152 l-265 136 -3 177 -2 178 197 2 198 3 0 130 0 130 -195 5 -195 5 -3
155 c-2 108 -6 156 -15 162 -6 4 -62 8 -124 8 -101 0 -113 -2 -123 -19z"/>
<path d="M637 4313 c-4 -3 -7 -75 -7 -160 l0 -153 -189 0 c-149 0 -191 -3
-200 -14 -8 -9 -11 -55 -9 -137 l3 -124 198 -3 197 -2 -2 -177 -3 -177 -265
-136 c-159 -82 -266 -142 -268 -152 -2 -9 42 -119 98 -245 l101 -229 -44 -67
c-66 -99 -98 -208 -99 -328 -1 -119 13 -180 64 -287 28 -60 59 -104 108 -156
l69 -73 -77 -11 c-160 -25 -286 -79 -298 -129 -11 -43 7 -74 62 -105 60 -33
230 -74 351 -84 l84 -7 -7 -40 c-23 -140 -102 -292 -261 -504 -195 -261 -231
-353 -240 -623 -5 -139 -3 -167 9 -178 12 -9 183 -12 774 -10 l759 3 -1 190
c0 186 -1 192 -32 286 -36 107 -92 202 -231 392 -103 140 -168 258 -205 369
-36 106 -35 118 10 118 63 0 236 31 319 57 86 27 145 73 145 113 0 60 -125
122 -302 150 -43 7 -78 16 -78 19 0 4 13 17 29 29 43 32 118 133 151 204 36
76 60 187 60 272 0 119 -53 275 -126 370 l-36 47 90 212 c110 262 104 242 84
260 -9 8 -131 72 -269 143 l-253 129 0 178 0 177 188 0 c133 0 192 4 200 12
19 19 16 232 -4 252 -13 13 -46 16 -202 16 l-187 0 3 140 c2 87 -1 147 -8 160
-10 18 -20 20 -129 20 -65 0 -121 -3 -124 -7z"/>
<path d="M3063 3878 c-6 -7 -43 -134 -83 -283 -40 -148 -73 -271 -75 -273 -1
-1 -61 37 -132 86 -72 49 -139 95 -151 101 -41 22 -47 -1 -65 -249 -10 -129
-19 -235 -20 -236 -1 -1 -65 9 -142 22 -121 20 -142 22 -154 9 -12 -12 7 -64
144 -380 l158 -366 -26 -52 c-119 -245 -72 -530 119 -721 l46 -46 -31 0 c-54
0 -232 -39 -277 -60 -65 -32 -71 -80 -15 -113 46 -27 186 -56 334 -69 l139
-12 -7 -53 c-11 -93 -53 -230 -96 -315 -55 -110 -104 -178 -238 -328 -71 -79
-123 -149 -144 -190 -31 -63 -32 -67 -32 -205 l0 -140 759 -3 c580 -2 762 1
773 10 12 10 14 38 11 147 -3 126 -5 140 -32 194 -29 60 -78 124 -193 250 -91
101 -159 198 -205 295 -41 85 -88 250 -88 306 l0 32 133 12 c287 27 409 77
362 149 -24 35 -72 53 -216 77 l-126 22 59 64 c65 70 127 188 149 280 22 96
16 233 -15 325 -15 44 -35 94 -45 111 l-18 30 153 355 c84 194 153 364 154
375 0 12 -6 24 -13 27 -6 2 -73 -6 -147 -18 -74 -12 -137 -21 -139 -19 -3 2
-12 108 -22 235 -13 171 -21 236 -32 246 -13 13 -33 2 -163 -86 -99 -67 -151
-96 -155 -88 -4 7 -37 127 -74 267 -37 140 -71 263 -76 273 -11 20 -32 22 -46
5z"/>
<path d="M5050 3011 c-179 -148 -326 -276 -328 -284 -2 -7 49 -161 112 -341
l115 -328 -49 -60 c-104 -129 -145 -258 -137 -433 7 -157 46 -256 149 -377 26
-31 48 -59 48 -62 0 -3 -17 -6 -37 -6 -51 -1 -204 -35 -242 -55 -37 -18 -54
-48 -46 -76 15 -47 181 -91 400 -107 l100 -7 -3 -40 c-8 -94 -64 -193 -127
-228 -11 -5 -71 -23 -134 -38 -157 -39 -203 -75 -238 -186 -20 -66 -31 -347
-13 -368 11 -13 103 -15 769 -15 575 0 760 3 769 12 24 24 8 328 -22 400 -38
89 -92 125 -245 161 -125 30 -170 58 -205 129 -27 55 -50 153 -40 169 3 5 27
9 54 9 78 0 273 28 340 49 71 22 100 45 100 77 0 50 -74 84 -228 106 -48 6
-89 13 -91 14 -2 2 17 27 42 56 136 160 188 374 138 570 -24 94 -55 157 -121
242 l-51 67 115 330 c63 182 113 335 110 342 -8 19 -651 547 -666 547 -7 0
-159 -121 -338 -269z m353 -378 c4 -6 3 -14 -3 -18 -6 -4 -11 -67 -12 -153
l-2 -147 -6 150 c-3 83 -3 197 0 255 l4 105 6 -90 c3 -49 8 -95 13 -102z"/>
<path d="M7357 2594 c-227 -55 -454 -260 -571 -517 -46 -100 -60 -165 -59
-282 0 -168 35 -289 178 -629 116 -276 162 -411 181 -540 30 -199 -7 -360
-123 -528 -38 -57 -44 -70 -33 -83 11 -13 99 -15 769 -13 l756 3 16 35 c9 19
27 75 40 125 21 79 23 113 24 280 0 169 -3 199 -23 270 -30 103 -81 208 -129
265 -54 65 -203 200 -305 277 -49 36 -88 67 -88 69 0 2 65 -19 145 -46 80 -28
154 -50 163 -50 22 0 272 286 272 310 0 10 -113 122 -250 250 l-251 233 53 56
c30 31 64 68 77 83 l24 28 -28 40 c-43 62 -187 195 -269 249 -175 114 -392
158 -569 115z"/>
<path d="M9234 2283 c-15 -16 -16 -46 -10 -378 14 -743 56 -1011 206 -1320 70
-144 159 -265 276 -374 85 -79 268 -211 294 -211 30 0 219 139 305 224 118
118 183 205 250 341 143 289 197 573 215 1115 12 371 12 577 0 601 -10 17 -22
19 -148 19 -94 0 -142 -4 -150 -12 -8 -8 -12 -50 -12 -125 l0 -113 -150 0
-150 0 0 113 c0 75 -4 117 -12 125 -17 17 -279 17 -296 0 -8 -8 -12 -50 -12
-125 l0 -113 -150 0 -150 0 0 113 c0 75 -4 117 -12 125 -8 8 -55 12 -144 12
-112 0 -135 -3 -150 -17z"/>
<path d="M11896 2155 c-276 -70 -450 -359 -381 -630 32 -125 119 -248 220
-312 l45 -28 -6 -105 c-15 -275 -72 -450 -168 -509 -19 -12 -75 -30 -125 -41
-105 -22 -139 -38 -175 -80 -45 -54 -57 -119 -54 -291 l3 -154 759 -3 c552 -1
763 1 772 9 10 9 14 43 14 132 0 200 -27 296 -97 343 -17 11 -69 29 -115 38
-111 24 -156 45 -197 91 -69 79 -107 224 -117 440 l-6 130 68 50 c205 151 266
426 145 662 -26 52 -112 146 -167 184 -110 75 -288 107 -418 74z"/>
</g>
</svg>
