<?xml version="1.0" standalone="no"?>
<!DOCTYPE svg PUBLIC "-//W3C//DTD SVG 20010904//EN"
 "http://www.w3.org/TR/2001/REC-SVG-20010904/DTD/svg10.dtd">
<svg version="1.0" xmlns="http://www.w3.org/2000/svg"
 width="1280.000000pt" height="650.000000pt" viewBox="0 0 1280.000000 650.000000"
 preserveAspectRatio="xMidYMid meet">
<metadata>
Created by potrace 1.15, written by Peter Selinger 2001-2017
</metadata>
<g transform="translate(0.000000,650.000000) scale(0.100000,-0.100000)"
fill="#000000" stroke="none">
<path d="M11542 6488 c-8 -8 -12 -50 -12 -125 l0 -113 -114 0 c-84 0 -116 -4
-125 -14 -8 -9 -11 -70 -9 -197 l3 -184 123 -3 122 -3 0 -99 0 -100 -395 0
c-254 0 -395 -4 -395 -10 0 -5 59 -216 131 -467 72 -252 158 -555 191 -673 34
-118 65 -221 71 -227 5 -7 26 -13 47 -13 l38 0 -5 -63 c-4 -48 -1 -71 12 -96
9 -18 15 -34 13 -35 -2 -1 -18 -8 -36 -16 -53 -21 -89 -71 -97 -134 -9 -72 -2
-98 40 -145 l35 -38 -56 -6 c-202 -21 -239 -283 -52 -362 22 -8 67 -15 107
-15 64 0 72 -2 87 -25 70 -106 78 -431 23 -865 -53 -424 -160 -866 -240 -995
l-32 -50 7 -167 7 -167 -38 -16 c-53 -22 -90 -60 -110 -114 -9 -25 -30 -70
-45 -100 -49 -94 -34 -194 42 -273 l46 -48 -72 0 c-49 0 -75 -4 -83 -14 -8
-10 -9 -80 -4 -262 l8 -249 995 0 995 0 -2 254 c-2 191 -6 257 -15 263 -7 4
-42 8 -78 8 l-65 0 33 21 c67 43 100 171 67 259 -9 25 -20 65 -24 90 -9 53
-30 96 -63 127 -26 25 -88 53 -116 53 -17 0 -20 11 -26 92 -3 50 -6 126 -6
169 0 74 -1 78 -33 110 -63 63 -133 274 -177 533 -93 545 -87 1143 13 1321
l23 40 94 5 c104 6 142 20 183 70 50 59 56 149 15 218 -25 41 -92 80 -153 88
-46 7 -47 7 -26 23 44 34 61 72 61 142 0 52 -5 73 -22 99 -21 30 -68 62 -110
74 -16 5 -16 8 -2 42 10 24 14 59 12 96 -3 57 -3 58 24 58 16 0 31 7 36 18 9
17 392 1350 392 1365 0 4 -173 7 -385 7 l-385 0 0 100 0 100 108 0 c71 0 112
4 120 12 17 17 17 359 0 376 -8 8 -49 12 -120 12 l-108 0 0 113 c0 75 -4 117
-12 125 -9 9 -76 12 -238 12 -162 0 -229 -3 -238 -12z"/>
<path d="M9428 5926 c-55 -20 -85 -42 -117 -87 -32 -44 -55 -126 -45 -165 l6
-24 -402 0 -402 0 6 -32 c18 -94 385 -1353 395 -1354 6 -1 30 -2 52 -3 36 -1
40 -3 28 -17 -18 -22 -17 -103 4 -143 21 -42 21 -41 -3 -41 -34 0 -79 -28 -95
-60 -9 -17 -18 -59 -22 -93 -6 -71 10 -116 54 -153 l25 -21 -57 -6 c-105 -11
-175 -84 -175 -181 0 -56 14 -93 48 -129 44 -46 81 -61 171 -67 81 -5 86 -6
102 -35 97 -168 46 -908 -101 -1495 -48 -192 -110 -356 -140 -375 -7 -4 -10
-70 -10 -187 l2 -180 -39 -18 c-46 -21 -99 -81 -109 -124 -4 -17 -18 -48 -32
-69 -20 -29 -27 -56 -30 -104 -5 -81 15 -138 70 -192 l40 -41 -68 0 c-38 0
-75 -4 -83 -9 -12 -7 -13 -50 -7 -257 4 -137 11 -252 15 -257 4 -4 452 -6 997
-5 l989 3 -4 250 c-2 147 -7 255 -13 263 -6 7 -34 12 -70 12 l-60 0 31 30 c43
44 74 133 67 193 -3 27 -12 62 -21 79 -8 17 -15 45 -15 61 0 45 -37 114 -77
144 -19 15 -55 32 -81 38 l-47 12 -3 163 -3 164 -39 43 c-21 24 -45 63 -53 86
-9 23 -27 75 -41 115 -73 203 -130 601 -143 982 -9 310 19 554 78 661 l24 44
95 5 c99 6 137 19 177 62 30 32 43 71 43 132 0 94 -70 168 -175 182 l-46 7 31
32 c38 39 52 86 44 150 -12 90 -57 145 -120 145 l-33 0 19 43 c24 51 25 77 6
122 -15 35 -15 35 12 37 45 2 50 3 57 9 10 11 394 1363 389 1371 -3 4 -180 8
-393 8 l-388 0 -1 54 c-1 161 -164 275 -314 222z"/>
<path d="M7010 5299 c-99 -19 -195 -85 -253 -171 -54 -83 -70 -145 -65 -252 4
-96 23 -154 74 -227 l24 -35 -41 -45 c-173 -186 -262 -452 -262 -784 0 -229
35 -399 122 -590 29 -63 31 -71 15 -80 -43 -26 -68 -51 -80 -81 -18 -43 -18
-147 0 -183 14 -27 14 -28 -19 -40 -18 -6 -47 -27 -63 -45 -62 -71 -48 -225
24 -273 l28 -18 -62 -6 c-106 -10 -168 -70 -180 -175 -6 -59 13 -108 59 -147
48 -42 97 -57 182 -57 62 0 67 -2 88 -31 27 -38 49 -110 49 -161 0 -106 -85
-256 -220 -389 l-87 -85 5 -170 5 -171 -47 -22 c-52 -26 -87 -67 -107 -126 -8
-22 -22 -51 -31 -65 -10 -14 -23 -51 -30 -82 -17 -79 7 -156 67 -216 l42 -42
-73 0 c-43 0 -76 -5 -80 -11 -8 -13 -5 -484 3 -505 4 -12 145 -14 997 -12
l991 3 0 253 c0 214 -2 254 -15 262 -8 5 -43 10 -78 10 l-63 0 37 32 c21 18
45 51 55 73 22 48 24 134 4 190 -8 22 -15 47 -15 55 -1 90 -102 200 -183 200
l-24 0 -6 172 -6 172 -28 20 c-54 39 -153 139 -182 185 -87 136 -79 331 17
434 23 25 32 27 98 27 120 0 188 35 225 115 23 49 24 94 4 143 -31 73 -102
122 -176 122 l-41 0 31 29 c40 38 51 69 51 147 0 95 -38 153 -111 169 -24 5
-29 10 -23 23 5 10 10 58 12 108 l3 91 -33 35 c-18 19 -39 37 -46 39 -9 3 -2
27 23 87 37 88 65 191 85 307 16 99 14 352 -4 455 -9 47 -16 91 -16 98 0 6 -3
12 -7 12 -5 0 -82 -83 -172 -185 -91 -102 -167 -185 -170 -185 -10 0 -121 101
-121 110 0 5 90 110 200 234 l201 225 -32 63 c-37 73 -92 156 -141 212 l-35
40 35 45 c65 86 76 123 77 251 0 109 -2 118 -32 181 -87 177 -282 275 -473
238z"/>
<path d="M2218 3774 c-40 -21 -90 -92 -152 -213 -61 -120 -88 -207 -111 -356
-19 -128 -19 -221 1 -276 16 -47 18 -56 143 -584 131 -554 169 -811 178 -1200
l6 -240 -68 -19 c-80 -23 -116 -50 -145 -112 -27 -56 -31 -184 -7 -230 16 -31
60 -74 92 -92 16 -9 9 -11 -41 -12 -94 0 -94 0 -94 -222 0 -166 2 -187 18
-201 17 -16 90 -17 840 -17 809 0 822 0 842 20 19 19 20 33 20 200 0 217 -1
220 -101 220 l-62 0 29 23 c70 54 94 102 94 187 0 70 -18 118 -62 166 -34 36
-54 48 -115 67 -64 19 -73 25 -69 42 3 11 8 50 12 87 l7 66 42 17 c135 51 213
243 185 454 -13 104 -56 231 -101 307 -40 66 -83 117 -284 336 -291 316 -290
314 -287 363 4 92 68 212 136 255 51 31 94 34 224 16 62 -9 146 -16 187 -16
64 0 77 3 104 26 20 17 36 44 47 79 14 48 14 57 0 83 -9 17 -31 40 -51 52 -19
12 -35 28 -35 36 0 16 38 45 100 76 62 32 70 62 35 134 -17 35 -44 69 -75 93
-45 36 -56 39 -182 59 -73 11 -209 31 -303 43 -144 19 -175 26 -203 47 -31 23
-41 25 -160 26 -156 1 -258 28 -292 76 -12 16 -34 31 -53 35 -47 11 -87 33
-134 76 -36 33 -49 39 -85 39 -24 -1 -55 -7 -70 -16z"/>
<path d="M4256 3684 c-14 -14 -16 -62 -14 -412 l3 -397 31 -16 32 -15 -19 -25
c-32 -40 -52 -126 -47 -194 9 -103 59 -174 150 -215 l47 -21 -19 -32 c-36 -59
-19 -176 31 -211 18 -12 18 -19 -11 -207 -70 -450 -146 -745 -248 -961 -21
-46 -42 -95 -45 -110 -4 -14 -24 -37 -47 -52 -45 -30 -59 -65 -38 -99 8 -12
18 -45 21 -74 6 -56 27 -105 60 -140 l20 -23 -56 0 c-87 0 -86 3 -86 -237 0
-114 5 -215 10 -225 9 -17 47 -18 812 -18 611 0 806 3 815 12 17 17 17 439 0
456 -7 7 -30 12 -51 12 l-39 0 25 30 c42 49 60 112 55 183 -6 71 -23 111 -68
156 l-32 31 26 0 c14 0 26 1 26 3 0 2 -30 48 -67 103 -78 117 -104 173 -166
354 -91 267 -157 576 -157 735 0 50 3 62 21 73 45 28 65 148 34 202 -21 36
-19 38 28 52 65 19 141 100 157 167 19 82 9 172 -28 231 l-30 48 35 5 c66 11
63 -10 63 423 l0 393 -22 15 c-20 14 -94 16 -610 16 -522 0 -588 -2 -602 -16z"/>
<path d="M815 2830 c-203 -43 -349 -190 -392 -393 -32 -154 12 -308 125 -429
l44 -47 -40 -10 c-95 -26 -162 -107 -187 -227 -18 -84 -19 -196 -3 -212 8 -8
47 -12 110 -12 l98 0 -5 -27 c-2 -16 -7 -58 -10 -94 -14 -164 -103 -343 -246
-493 -62 -66 -76 -76 -106 -76 -73 0 -150 -52 -184 -125 -36 -78 -19 -165 45
-230 24 -24 57 -46 75 -50 36 -8 42 -25 8 -25 -43 0 -47 -14 -47 -186 0 -134
3 -165 16 -178 14 -14 96 -16 759 -16 663 0 745 2 759 16 13 13 16 44 16 178
0 168 -4 186 -43 186 -10 0 -17 3 -15 8 30 58 42 99 46 162 6 106 -8 150 -66
202 -139 126 -221 224 -276 335 -55 110 -68 165 -70 296 l-2 117 117 0 c92 0
119 3 129 15 19 23 6 197 -19 266 -36 96 -104 157 -193 174 l-36 7 43 45 c211
220 165 586 -94 753 -97 61 -254 93 -356 70z m65 -43 c0 -1 -48 -50 -107 -107
l-108 -105 105 108 c97 99 110 112 110 104z"/>
</g>
</svg>
