<?xml version="1.0" encoding="UTF-8" standalone="no"?>
<svg
   xmlns:dc="http://purl.org/dc/elements/1.1/"
   xmlns:cc="http://creativecommons.org/ns#"
   xmlns:rdf="http://www.w3.org/1999/02/22-rdf-syntax-ns#"
   xmlns:svg="http://www.w3.org/2000/svg"
   xmlns="http://www.w3.org/2000/svg"
   xmlns:sodipodi="http://sodipodi.sourceforge.net/DTD/sodipodi-0.dtd"
   xmlns:inkscape="http://www.inkscape.org/namespaces/inkscape"
   version="1.1"
   id="Layer_1"
   x="0px"
   y="0px"
   viewBox="0 0 300 600.00001"
   enable-background="new 0 0 1356.698 1680.772"
   xml:space="preserve"
   inkscape:version="0.91 r13725"
   sodipodi:docname="chess piece-Rubinesqueen.svg"
   width="300"
   height="600"><metadata
     id="metadata9"><rdf:RDF><cc:Work
         rdf:about=""><dc:format>image/svg+xml</dc:format><dc:type
           rdf:resource="http://purl.org/dc/dcmitype/StillImage" /><dc:title></dc:title></cc:Work></rdf:RDF></metadata><defs
     id="defs7" /><sodipodi:namedview
     pagecolor="#ffffff"
     bordercolor="#666666"
     borderopacity="1"
     objecttolerance="10"
     gridtolerance="10"
     guidetolerance="10"
     inkscape:pageopacity="0"
     inkscape:pageshadow="2"
     inkscape:window-width="1544"
     inkscape:window-height="883"
     id="namedview5"
     showgrid="false"
     showguides="true"
     inkscape:guide-bbox="true"
     inkscape:zoom="0.83572854"
     inkscape:cx="176.23119"
     inkscape:cy="335.86376"
     inkscape:window-x="419"
     inkscape:window-y="38"
     inkscape:window-maximized="0"
     inkscape:current-layer="Layer_1" /><g
     id="g91382"
     transform="matrix(0.94913256,0,0,0.94913256,7.6301162,14.700214)"><g
       transform="matrix(0.19691236,0,0,0.19691236,16.491593,276.98792)"
       id="g91378"><path
         d="m 32.041871,196.134 c 0,0 60.696347,43.88956 94.339999,56.707 125.43912,47.78937 257.428,128.273 300.315,277.329 27.6,96.095 2.334,177.09 11.434,254.606 15.749,131.474 135.983,229.223 84.508,254.993 -12.007,5.981 -54.987,13.155 -63.303,25.252 -2.082,2.995 -1.602,5.82 2.097,12.227 6.632,11.531 8.977,22.675 6.207,29.407 -4.587,11.016 -18.974,13.658 -22.288,14.619 -1.176,0.343 -0.718,1.13 2.817,4.837 19.345,20.257 11.211,46.337 -21.436,46.433 -6.881,0.024 -1.777,-2.788 1.896,41.689 5.974,72.418 -16.018,125.71 -88.702,127.535 -26.28,0.668 -17.864,-0.848 -121.112,-11.384 -66.355,-6.596 -86.062,-18.709 -121.258003,83.848 -1.538,80.152 5.751683,170.6178 0.792687,232.1458 l 1129.045046,-3.4335 c -9.715,-82.88 -2.3497,-185.6593 -6.1547,-277.1993 -25.305,-52.324 -59.408,-39.312 -105.781,-34.802 -89.114,8.726 -125.03403,18.567 -159.11003,2.685 -51.836,-24.126 -52.714,-92.325 -43.585,-149.126 3.243,-20.281 2.43,-6.245 -19.873,-15.764 -30.411,-13.034 0.549,-50.046 0.549,-46.58 0,-2.033 -29.245,-3.52 -23.642,-28.734 5.658,-25.425 31.961,-27.729 -33.491,-46.812 -18.655,-5.43 -26.256,-6.956 -31.187,-16.414 -16.531,-31.016 60.403,-111.631 84.825,-196.488 35.864,-122.564 -28.942,-214.562 47.228,-369.527 63.79303,-127.408 150.05403,-178.396 285.21103,-217.739 35.478,-10.327 101.595,-53.765 101.595,-53.765 -0.2408,-552.16247 -1293.893943,-492.93757 -1291.937029,3.455 z"
         id="path3"
         inkscape:connector-curvature="0"
         sodipodi:nodetypes="csccccccccccccccccccccccccccscc" /><path
         style="fill:#000000"
         d="m 677.5882,-1406.6538 c -26.7814,-0.2581 -50.9271,24.4061 -44.5898,58.4062 4.1489,21.9891 -1.7178,35.1652 -39.3437,89.2149 l -44.0625,63.4199 -19.4571,-31.1309 c -10.5869,-17.1248 -31.1891,-52.0471 -45.6386,-77.6269 -14.4495,-25.5799 -29.1856,-48.2707 -32.6192,-50.4024 -3.4334,-2.1459 -20.6009,28.7856 -38.0547,68.7149 -17.4538,39.9434 -33.6197,72.5472 -35.7656,72.4472 -2.289,-0.1003 -31.0444,-34.9069 -63.9492,-77.3828 -32.9048,-42.4614 -60.8027,-76.1247 -61.9473,-74.8086 -1.1445,1.3162 12.0179,88.2421 29.1856,193.1797 17.1677,104.9234 31.3316,193.50962 31.4746,196.85742 0.1431,3.3621 6.8652,6.0938 14.8769,6.0938 12.3035,0 16.0231,11.8736 24.1778,76.6816 15.8801,125.5675 63.6642,237.2013 132.0488,308.9336 l 30.9023,32.4766 -145.4961,112.1328 -145.6406,112.1621 0,35.4805 c 0,35.0508 0.8584,36.1951 72.9629,91.9902 l 72.9629,56.3672 -24.6055,10.1582 c -59.0855,24.4639 -63.0928,113.163997 -6.4394,142.4921971 14.3065,7.2962999 47.6408,11.5878999 91.8476,11.5878999 50.2156,0 69.2432,2.7168 68.9571,10.1562 -0.0323,0.6286 -0.9173,4.9234 -2.3868,11.7227 l 363.5586,0 c -2.1528,-9.407 -3.4923,-15.4055 -3.5117,-15.8711 0,-3.2905 32.6198,-6.0078 72.6777,-6.0078 81.6898,0 110.0154,-9.2998 126.754,-41.7754 23.4625,-45.3513 5.1506,-96.854297 -40.3438,-113.306697 l -27.7539,-10.0136 72.248,-56.0821 c 71.5321,-55.2228 72.3907,-56.3671 72.3907,-91.4179 l 0,-35.4805 -145.6407,-112.1621 -145.496,-112.1328 31.0449,-32.4766 c 68.3846,-71.7323 116.026,-183.3661 131.9062,-308.9336 5.8656,-46.2669 13.3033,-76.6816 18.8828,-76.6816 5.8656,0 21.7469,-74.29372 42.2051,-196.87112 18.0263,-108.271 32.0459,-197.6709 31.1875,-198.6582 -0.8584,-0.987 -27.4686,32.9611 -59.0859,75.4512 l -57.5117,77.2695 -30.6153,-77.4981 c -16.8815,-42.619 -32.7621,-77.4704 -35.4804,-77.4414 -2.5752,0.029 -26.3237,38.3848 -52.9336,85.2383 -26.4669,46.8679 -50.7867,85.1953 -53.7911,85.1953 -3.0044,0 -26.1815,-27.4266 -51.5039,-60.9609 -38.0551,-50.5876 -44.3494,-63.606 -37.4824,-76.582 12.4467,-23.2337 10.3,-39.1708 -7.8691,-57.2969 -10.1509,-10.1679 -21.9286,-14.7192 -33.2364,-14.8281 z"
         id="path2472"
         inkscape:connector-curvature="0" /></g></g></svg>